<?xml version="1.0" encoding="UTF-8" standalone="no"?>
<!DOCTYPE svg PUBLIC "-//W3C//DTD SVG 1.1//EN" "http://www.w3.org/Graphics/SVG/1.1/DTD/svg11.dtd">
<!-- Created with Vectornator (http://vectornator.io/) -->
<svg height="100%" stroke-miterlimit="10" style="fill-rule:nonzero;clip-rule:evenodd;stroke-linecap:round;stroke-linejoin:round;" version="1.1" viewBox="0 0 165 165" width="100%" xml:space="preserve" xmlns="http://www.w3.org/2000/svg" xmlns:xlink="http://www.w3.org/1999/xlink">
<defs/>
<g id="Layer-1">
<g opacity="1">
<g opacity="1">
<path d="M75.4886 74.5695C75.4886 74.5695 76.346 74.3838 77.3971 74.1548C78.3141 73.955 78.6477 74.2459 78.8413 74.4114C79.0349 74.577 79.3645 75.1264 79.208 75.923C78.9649 77.1603 78.666 78.7038 78.666 78.7038L80.195 74.9241L80.0981 73.1925L77.9243 73.4829L75.4886 74.5695Z" fill="#000000" fill-rule="nonzero" opacity="1" stroke="none"/>
<path d="M83.06 93.9148C83.06 93.9148 83.6114 93.7382 84.5063 93.443C85.4012 93.1478 85.6366 93.1806 86.1656 93.2407C86.6946 93.3008 87.6649 93.9167 87.3769 95.4733C87.1475 96.7132 86.8392 98.0948 86.8392 98.0948L88.1634 94.2723L88.1726 92.036L85.9988 92.3264L83.06 93.9148Z" fill="#000000" fill-rule="nonzero" opacity="1" stroke="none"/>
<path d="M109.173 51.7742C109.173 51.7742 108.236 51.9422 107.176 52.1258C105.717 52.3787 105.055 51.9639 104.796 51.4483C104.538 50.9328 104.721 49.9446 104.946 49.1526C105.183 48.318 105.209 48.1809 105.209 48.1809L103.856 51.2722L103.802 52.979L106.127 52.7134L109.173 51.7742Z" fill="#000000" fill-rule="nonzero" opacity="1" stroke="none"/>
<path d="M111.507 21.1505L67.3436 29.7693L64.7418 75.5126L81.5462 71.6681L77.1903 94.3013L90.0217 90.0517L83.1343 123.579L119.594 51.1882L101.793 54.7313L111.507 21.1505Z" fill="#000000" fill-rule="nonzero" opacity="1" stroke="#000000" stroke-linecap="round" stroke-linejoin="round" stroke-width="3"/>
</g>
<g opacity="1">
<path d="M24.7861 37.3013L22.8004 36.902L23.9362 38.8451" fill="none" opacity="1" stroke="#000000" stroke-linecap="round" stroke-linejoin="round" stroke-width="6.5"/>
<path d="M141.443 38.7823L142.487 37.0468L140.275 37.4624" fill="none" opacity="1" stroke="#000000" stroke-linecap="round" stroke-linejoin="round" stroke-width="6.5"/>
<path d="M79.074 141.924C79.074 141.924 80.0514 143.711 81.0075 145.003C81.5642 145.756 82.6598 145.997 83.2867 145.975C83.9137 145.953 84.8274 145.925 85.3852 145.16C86.6028 143.49 87.5287 141.492 87.5287 141.492L79.074 141.924Z" fill="#000000" fill-rule="nonzero" opacity="1" stroke="none"/>
<g opacity="1">
<path d="M64.2787 41.093L25.5935 34.1556L20.9508 40.1826L79.1225 142.01L87.4902 141.575L144.336 40.2165L139.813 34.2475L108.584 39.7653L105.979 49.5625L107.708 51.2603L120.852 48.5244L122.977 49.5119L84.0077 126.773L80.3869 125.684L86.6736 95.0851L85.3056 94.0669L76.0743 97.088L74.8848 95.1701L78.5017 75.5679L77.6459 74.8602L63.7114 78.1544L62.4299 77.2156L64.2787 41.093Z" fill="#000000" fill-rule="nonzero" opacity="1" stroke="none"/>
<path d="M67.0064 77.3791C67.0064 77.3791 65.7595 77.6124 65.3344 77.6616C64.2337 77.7428 63.8533 77.7167 63.459 77.514C63.0647 77.3114 62.6374 76.7976 62.5559 75.7644C62.534 75.4962 62.5644 74.678 62.5644 74.678L62.0935 77.3588L62.6226 79.0104L64.6536 78.1829L67.0064 77.3791Z" fill="#000000" fill-rule="nonzero" opacity="1" stroke="none"/>
<path d="M78.8568 96.1835C78.8568 96.1835 77.9816 96.5028 77.5565 96.552C76.9159 96.5987 76.4492 96.5974 75.896 96.2664C75.3427 95.9354 75.1049 95.3706 75.0845 94.5904C75.0504 94.2099 75.1817 93.2838 75.1817 93.2838L74.6536 96.1799L75.0648 97.4062L77.2137 97.004L78.8568 96.1835Z" fill="#000000" fill-rule="nonzero" opacity="1" stroke="none"/>
<path d="M85.4782 123.872C85.4782 123.872 84.5963 125.588 84.1554 125.852C83.295 126.441 81.2628 126.039 80.8983 124.714C80.6919 124.082 81.0104 122.656 81.0104 122.656L80.0612 125.667L84.2128 126.983L85.4782 123.872Z" fill="#000000" fill-rule="nonzero" opacity="1" stroke="none"/>
<path d="M118.046 49.1011C118.046 49.1011 119.112 48.9211 119.54 48.919C120.182 48.9431 120.587 49.0546 121.101 49.4445C121.614 49.8344 121.883 50.5639 121.817 51.3416C121.809 51.7236 121.395 52.6908 121.395 52.6908L123.252 49.4347L120.78 48.2617L118.046 49.1011Z" fill="#000000" fill-rule="nonzero" opacity="1" stroke="none"/>
<g opacity="1">
<path d="M77.8049 75.3348L78.0427 75.2739L78.007 75.4878" fill="#000000" fill-rule="nonzero" opacity="1" stroke="#000000" stroke-linecap="round" stroke-linejoin="round" stroke-width="1"/>
<path d="M85.5975 94.9179L85.8005 94.8524L85.7513 95.0879" fill="#000000" fill-rule="nonzero" opacity="1" stroke="#000000" stroke-linecap="round" stroke-linejoin="round" stroke-width="1.8"/>
</g>
<path d="M107.827 50.2682L106.673 50.5185L107.004 49.4336" fill="#000000" fill-rule="nonzero" opacity="1" stroke="#000000" stroke-linecap="round" stroke-linejoin="round" stroke-width="1.9"/>
</g>
</g>
</g>
</g>
</svg>
